<svg xmlns="http://www.w3.org/2000/svg" viewBox="0 0 454.92 112.54"><defs><style>.cls-1{fill:#1d1d1b;}.cls-2{fill:#f5a92e;}</style></defs><title>Fichier 7</title><g id="Calque_2" data-name="Calque 2"><g id="Calque_1-2" data-name="Calque 1"><path class="cls-1" d="M37.67,112.54a38.63,38.63,0,0,1-15.51-3,35.17,35.17,0,0,1-11.87-8.22,37.8,37.8,0,0,1-7.6-12A38.63,38.63,0,0,1,0,74.87,39,39,0,0,1,1.74,63.24,43.15,43.15,0,0,1,6.49,52.87L39.57,0H56.19L30.87,38.94A8.52,8.52,0,0,1,34,37.52,14.88,14.88,0,0,1,37.67,37a39.6,39.6,0,0,1,15.75,3,35.76,35.76,0,0,1,12,8.23,36.85,36.85,0,0,1,7.68,12.11,39.52,39.52,0,0,1,2.69,14.48,38.83,38.83,0,0,1-2.69,14.4,37.17,37.17,0,0,1-7.68,12,35.74,35.74,0,0,1-12,8.22A39.6,39.6,0,0,1,37.67,112.54Zm0-13a24,24,0,0,0,9.82-2A22.21,22.21,0,0,0,55,92.2a24.22,24.22,0,0,0,4.75-7.83,26.77,26.77,0,0,0,1.67-9.5,27.46,27.46,0,0,0-1.67-9.58A23.2,23.2,0,0,0,55,57.46a22.68,22.68,0,0,0-7.51-5.3,23.83,23.83,0,0,0-9.82-2,22.91,22.91,0,0,0-9.58,2,22,22,0,0,0-7.35,5.3,23.67,23.67,0,0,0-4.67,7.83,27.46,27.46,0,0,0-1.67,9.58,26.77,26.77,0,0,0,1.67,9.5,24.73,24.73,0,0,0,4.67,7.83,21.57,21.57,0,0,0,7.35,5.39A23.06,23.06,0,0,0,37.67,99.56Z"/><path class="cls-2" d="M87.06,100.67a11,11,0,0,1,3.17-8A10.4,10.4,0,0,1,98,89.43a10.94,10.94,0,0,1,7.91,3.25,10.72,10.72,0,0,1,3.33,8,10.3,10.3,0,0,1-3.33,7.76A11.06,11.06,0,0,1,98,111.59a10.81,10.81,0,0,1-10.92-10.92Z"/><path class="cls-1" d="M161,70.76c2.74.84,5.41,1.74,8,2.69a27.66,27.66,0,0,1,6.89,3.64,17,17,0,0,1,4.83,5.54A17.35,17.35,0,0,1,182.5,91a19.92,19.92,0,0,1-2.13,9.42,19.23,19.23,0,0,1-5.94,6.72,27.13,27.13,0,0,1-8.94,4,44.34,44.34,0,0,1-11.16,1.34,40.42,40.42,0,0,1-11.4-1.58,26.84,26.84,0,0,1-9.41-4.83A24,24,0,0,1,127,98a25.11,25.11,0,0,1-2.46-11.4H138q0,8.24,4.82,11.64a20.51,20.51,0,0,0,12.11,3.4q6.64,0,10.53-2.45c2.58-1.64,3.88-4.25,3.88-7.84a7.06,7.06,0,0,0-1.59-4.82,13.88,13.88,0,0,0-4.51-3.25,42.6,42.6,0,0,0-7.2-2.61q-4.27-1.19-9.66-3.09-4.11-1.26-7.67-2.69a22.21,22.21,0,0,1-6.18-3.64,15.92,15.92,0,0,1-4.11-5.38,18.87,18.87,0,0,1-1.5-8.07,18.17,18.17,0,0,1,7.75-15.44,26.72,26.72,0,0,1,8.55-4A39.62,39.62,0,0,1,153.7,37a33.42,33.42,0,0,1,10.92,1.74,26,26,0,0,1,8.78,5,23.74,23.74,0,0,1,5.86,7.67,22.26,22.26,0,0,1,2.14,9.82H168.1q0-6.33-3.72-9.74t-10.84-3.4a16.83,16.83,0,0,0-9.5,2.53,8.38,8.38,0,0,0-3.8,7.44,7,7,0,0,0,1.35,4.43,10.59,10.59,0,0,0,4,3A49.42,49.42,0,0,0,152.11,68Z"/><path class="cls-1" d="M238.38,110.8q-2.06.32-5.46.64t-6.88.31a46.44,46.44,0,0,1-7.28-.63,17,17,0,0,1-7.37-3.09,18.22,18.22,0,0,1-5.69-7.52q-2.3-5.06-2.3-13.93V50.5H190.1V38.94h13.3V14.72h13.77V38.94h18.68V50.5H217.17v33a31.53,31.53,0,0,0,.87,8.28,11,11,0,0,0,2.46,4.74,7.25,7.25,0,0,0,3.71,2.13,22.86,22.86,0,0,0,4.83.47h5a15.59,15.59,0,0,0,4.35-.48Z"/><path class="cls-1" d="M322.12,38.94V110.8H308.51V98.3a25.16,25.16,0,0,1-10.37,10.45,30.19,30.19,0,0,1-14.8,3.79,36.7,36.7,0,0,1-15-3,34.58,34.58,0,0,1-11.63-8.22,38.83,38.83,0,0,1-10.21-26.44,39.31,39.31,0,0,1,2.69-14.48,38,38,0,0,1,7.52-12.11,34.6,34.6,0,0,1,11.63-8.23,36.7,36.7,0,0,1,15-3,30.09,30.09,0,0,1,14.8,3.8,25.08,25.08,0,0,1,10.37,10.44V38.94Zm-38,61.26a23.61,23.61,0,0,0,22.63-15.52,28.37,28.37,0,0,0,0-19.62,25.22,25.22,0,0,0-4.9-8.08,23.53,23.53,0,0,0-7.68-5.54,24,24,0,0,0-10.05-2,23.39,23.39,0,0,0-10,2A22.77,22.77,0,0,0,266.64,57a26,26,0,0,0-4.83,8.08,28.52,28.52,0,0,0,0,19.62,24.8,24.8,0,0,0,4.83,8,23.13,23.13,0,0,0,7.52,5.46A23.39,23.39,0,0,0,284.13,100.2Z"/><path class="cls-1" d="M391.29,51.6c-1.48-.32-2.67-.52-3.56-.63a29.7,29.7,0,0,0-3.25-.16q-12,0-18,7.76T360.58,79.3v31.5H346.81V38.94h13.77V53a23.5,23.5,0,0,1,9.58-11,26.65,26.65,0,0,1,14.32-4.19,18,18,0,0,1,6.81,1.11Z"/><path class="cls-1" d="M433.39,70.76c2.75.84,5.41,1.74,8,2.69a27.42,27.42,0,0,1,6.88,3.64,16.85,16.85,0,0,1,4.83,5.54A17.34,17.34,0,0,1,454.92,91a19.81,19.81,0,0,1-2.14,9.42,19.11,19.11,0,0,1-5.93,6.72,27.28,27.28,0,0,1-9,4,44.34,44.34,0,0,1-11.16,1.34A40.29,40.29,0,0,1,415.35,111a26.8,26.8,0,0,1-9.42-4.83A24.07,24.07,0,0,1,399.44,98,25.11,25.11,0,0,1,397,86.58h13.45q0,8.24,4.83,11.64a20.49,20.49,0,0,0,12.11,3.4q6.64,0,10.52-2.45t3.88-7.84a7.1,7.1,0,0,0-1.58-4.82,14,14,0,0,0-4.51-3.25,42.6,42.6,0,0,0-7.2-2.61q-4.28-1.19-9.66-3.09c-2.75-.84-5.3-1.74-7.68-2.69A22.15,22.15,0,0,1,405,71.23a15.92,15.92,0,0,1-4.11-5.38,18.72,18.72,0,0,1-1.51-8.07,18.21,18.21,0,0,1,7.76-15.44,26.52,26.52,0,0,1,8.55-4A39.55,39.55,0,0,1,426.11,37,33.38,33.38,0,0,1,437,38.78a26,26,0,0,1,8.79,5,23.88,23.88,0,0,1,5.86,7.67,22.4,22.4,0,0,1,2.13,9.82H440.52q0-6.33-3.72-9.74T426,48.12a16.85,16.85,0,0,0-9.5,2.53,8.37,8.37,0,0,0-3.79,7.44A7.06,7.06,0,0,0,414,62.52a10.63,10.63,0,0,0,4,3A48.88,48.88,0,0,0,424.53,68Z"/></g></g></svg>